<svg xmlns:dc="http://purl.org/dc/elements/1.1/" xmlns:cc="http://creativecommons.org/ns#" xmlns:rdf="http://www.w3.org/1999/02/22-rdf-syntax-ns#" xmlns:svg="http://www.w3.org/2000/svg" xmlns="http://www.w3.org/2000/svg" xmlns:xlink="http://www.w3.org/1999/xlink" id="svg192987" viewBox="0 0 1024 768" height="768px" width="1024px" version="1.1">
  <metadata id="metadata192993">
    <rdf:rdf>
      <cc:work rdf:about="">
        <dc:format>image/svg+xml</dc:format>
        <dc:type rdf:resource="http://purl.org/dc/dcmitype/StillImage"></dc:type>
      </cc:work>
    </rdf:rdf>
  </metadata>
  <defs id="defs192991"></defs>
  <linearGradient spreadMethod="pad" y2="30%" x2="-10%" y1="120%" x1="30%" id="3d_gradient2-logo-f5e0a3e5-18a4-4835-ad90-1f6a28cfbe28">
    <stop id="stop192968" stop-opacity="1" stop-color="#ffffff" offset="0%" data-darkreader-inline-stopcolor="" style="--darkreader-inline-stopcolor: #1a1b1a;"></stop>
    <stop id="stop192970" stop-opacity="1" stop-color="#000000" offset="100%" data-darkreader-inline-stopcolor="" style="--darkreader-inline-stopcolor: #000000;"></stop>
  </linearGradient>
  <linearGradient gradientTransform="rotate(-30)" spreadMethod="pad" y2="30%" x2="-10%" y1="120%" x1="30%" id="3d_gradient3-logo-f5e0a3e5-18a4-4835-ad90-1f6a28cfbe28">
    <stop id="stop192973" stop-opacity="1" stop-color="#ffffff" offset="0%" data-darkreader-inline-stopcolor="" style="--darkreader-inline-stopcolor: #1a1b1a;"></stop>
    <stop id="stop192975" stop-opacity="1" stop-color="#cccccc" offset="50%" data-darkreader-inline-stopcolor="" style="--darkreader-inline-stopcolor: #3a3b3a;"></stop>
    <stop id="stop192977" stop-opacity="1" stop-color="#000000" offset="100%" data-darkreader-inline-stopcolor="" style="--darkreader-inline-stopcolor: #000000;"></stop>
  </linearGradient>
  <g id="logo-group">
    <image xlink:href="" id="container" x="272" y="144" width="480" height="480" style="display: none;" transform="translate(0 0)"></image>
    <g id="logo-center" transform="translate(5.684341886080802e-14 0)">
      <image xlink:href="" id="icon_container" style="display: none;" x="0" y="0"></image>
      <g id="slogan" style="font-style:normal;font-weight:400;font-size:32px;line-height:1;font-family:Farsan;font-variant-ligatures:none;text-align:center;text-anchor:middle" transform="translate(0 0)"></g>
      <g id="title" style="font-style:normal;font-weight:500;font-size:72px;line-height:1;font-family:'Raleway Medium Alt1';font-variant-ligatures:none;text-align:center;text-anchor:middle" transform="translate(0 0)">
        <path id="path192996" style="font-style: normal; font-weight: 500; font-size: 72px; line-height: 1; font-family: &quot;Raleway Medium Alt1&quot;; font-variant-ligatures: none; text-align: center; text-anchor: middle; --darkreader-inline-fill: #d6ccbc; --darkreader-inline-stroke: #d6ccbc;" d="m 387.55644,-51.12 h -30.456 v 5.76 h 25.128 z m 6.84,0 -4.968,5.76 -32.976,40.32 V 0 h 2.808 l 5.328,-5.76 32.4,-40.32 v -5.04 z M 366.31644,0 h 30.672 v -5.76 h -25.632 z" stroke-width="0" stroke-linejoin="miter" stroke-miterlimit="2" fill="#37312c" stroke="#37312c" transform="translate(0 319.07079999999996) translate(226.29002545000003 28.378400000000006) scale(1.43) translate(-356.45244 51.12)" data-darkreader-inline-fill="" data-darkreader-inline-stroke=""></path>
        <path id="path192998" style="font-style: normal; font-weight: 500; font-size: 72px; line-height: 1; font-family: &quot;Raleway Medium Alt1&quot;; font-variant-ligatures: none; text-align: center; text-anchor: middle; --darkreader-inline-fill: #c9bfae; --darkreader-inline-stroke: #c9bfae;" d="m 405.69031,0 h 6.48 v -51.12 h -6.48 z" stroke-width="0" stroke-linejoin="miter" stroke-miterlimit="2" fill="#49443f" stroke="#49443f" transform="translate(0 319.07079999999996) translate(318.15017955 28.378400000000006) scale(1.43) translate(-405.69031 51.12)" data-darkreader-inline-fill="" data-darkreader-inline-stroke=""></path>
        <path id="path193000" style="font-style: normal; font-weight: 500; font-size: 72px; line-height: 1; font-family: &quot;Raleway Medium Alt1&quot;; font-variant-ligatures: none; text-align: center; text-anchor: middle; --darkreader-inline-fill: #bdb2a1; --darkreader-inline-stroke: #bdb2a1;" d="m 462.48144,-22.752 c -0.216,1.512 -0.504,3.024 -1.008,4.464 -0.792,2.448 -1.944,4.608 -3.456,6.48 -1.512,1.872 -3.384,3.456 -5.472,4.608 -2.232,1.152 -4.68,1.728 -7.344,1.728 -2.664,0 -5.04,-0.504 -7.2,-1.656 -2.16,-1.08 -4.032,-2.592 -5.544,-4.464 -1.584,-1.872 -2.736,-3.96 -3.6,-6.408 -0.504,-1.512 -0.864,-3.096 -1.08,-4.752 h -6.552 c 0.216,2.304 0.72,4.608 1.584,6.768 1.08,3.168 2.736,5.904 4.896,8.352 2.088,2.448 4.608,4.392 7.56,5.832 2.952,1.44 6.264,2.16 9.864,2.16 3.456,0 6.624,-0.648 9.576,-2.088 2.952,-1.44 5.472,-3.312 7.632,-5.688 2.16,-2.376 3.816,-5.112 5.04,-8.28 0.864,-2.232 1.44,-4.608 1.728,-7.056 z m -33.624,-10.152 c 0.792,-2.376 1.944,-4.464 3.456,-6.408 1.512,-1.872 3.384,-3.384 5.544,-4.536 2.16,-1.152 4.608,-1.728 7.344,-1.728 2.52,0 4.896,0.576 7.056,1.656 2.16,1.152 3.96,2.592 5.544,4.464 1.584,1.872 2.736,3.96 3.6,6.408 0.432,1.296 0.792,2.664 1.008,3.96 h 6.552 c -0.288,-1.944 -0.792,-3.96 -1.44,-5.832 -1.152,-3.096 -2.808,-5.832 -4.896,-8.352 -2.16,-2.448 -4.68,-4.392 -7.56,-5.904 -2.952,-1.512 -6.264,-2.304 -9.792,-2.304 -3.528,0 -6.696,0.72 -9.648,2.16 -2.952,1.44 -5.472,3.312 -7.632,5.688 -2.16,2.448 -3.888,5.184 -5.112,8.28 -0.792,2.088 -1.368,4.176 -1.584,6.264 h 6.552 c 0.216,-1.224 0.576,-2.52 1.008,-3.816 z" stroke-width="0" stroke-linejoin="miter" stroke-miterlimit="2" fill="#5a5651" stroke="#5a5651" transform="translate(0 319.07079999999996) translate(361.81541544999993 27.863599999999998) scale(1.43) translate(-421.22544 51.48)" data-darkreader-inline-fill="" data-darkreader-inline-stroke=""></path>
        <path id="path193002" style="font-style: normal; font-weight: 500; font-size: 72px; line-height: 1; font-family: &quot;Raleway Medium Alt1&quot;; font-variant-ligatures: none; text-align: center; text-anchor: middle; --darkreader-inline-fill: #b0a693; --darkreader-inline-stroke: #b0a693;" d="M 478.25281,-5.76 V 0 h 34.992 v -5.76 z m 6.48,-45.36 h -6.48 v 38.88 h 6.48 z" stroke-width="0" stroke-linejoin="miter" stroke-miterlimit="2" fill="#6c6964" stroke="#6c6964" transform="translate(0 319.07079999999996) translate(464.8145545499999 28.378400000000006) scale(1.43) translate(-478.25281 51.12)" data-darkreader-inline-fill="" data-darkreader-inline-stroke=""></path>
        <path id="path193004" style="font-style: normal; font-weight: 500; font-size: 72px; line-height: 1; font-family: &quot;Raleway Medium Alt1&quot;; font-variant-ligatures: none; text-align: center; text-anchor: middle; --darkreader-inline-fill: #a49886; --darkreader-inline-stroke: #a49886;" d="m 544.13169,-44.136 -2.808,7.632 6.48,16.488 h -12.816 l -1.944,5.04 h 16.2 L 555.29169,0 h 6.912 z m -2.808,-6.984 h -5.472 L 514.89969,0 h 6.624 l 17.064,-43.632 z" stroke-width="0" stroke-linejoin="miter" stroke-miterlimit="2" fill="#7e7b77" stroke="#7e7b77" transform="translate(0 319.07079999999996) translate(538.6695929499998 28.378400000000006) scale(1.43) translate(-514.89969 51.12)" data-darkreader-inline-fill="" data-darkreader-inline-stroke=""></path>
        <path id="path193006" style="font-style: normal; font-weight: 500; font-size: 72px; line-height: 1; font-family: &quot;Raleway Medium Alt1&quot;; font-variant-ligatures: none; text-align: center; text-anchor: middle; --darkreader-inline-fill: #a89d8c; --darkreader-inline-stroke: #a89d8c;" d="m 569.09656,0 h 6.48 v -28.728 l -6.48,-8.424 z m 36.72,-51.048 v 39.744 l -31.68,-39.816 h -5.04 v 3.888 l 6.48,8.208 31.248,39.024 h 5.472 v -51.048 z" stroke-width="0" stroke-linejoin="miter" stroke-miterlimit="2" fill="#8f8e89" stroke="#8f8e89" transform="translate(0 319.07079999999996) translate(637.6211170499998 28.378400000000006) scale(1.43) translate(-569.09656 51.12)" data-darkreader-inline-fill="" data-darkreader-inline-stroke=""></path>
        <path id="path193008" style="font-style: normal; font-weight: 500; font-size: 72px; line-height: 1; font-family: &quot;Raleway Medium Alt1&quot;; font-variant-ligatures: none; text-align: center; text-anchor: middle; --darkreader-inline-fill: #b5ab99; --darkreader-inline-stroke: #b5ab99;" d="m 638.47081,-7.056 c -2.232,-1.008 -4.104,-2.448 -5.616,-4.32 -1.584,-1.872 -2.88,-3.96 -3.744,-6.408 -0.936,-2.448 -1.368,-4.968 -1.368,-7.776 0,-2.52 0.36,-5.04 1.224,-7.488 0.792,-2.448 1.944,-4.536 3.456,-6.408 1.44,-1.872 3.24,-3.312 5.4,-4.464 2.088,-1.152 4.392,-1.728 7.056,-1.728 3.168,0 5.976,0.72 8.568,2.16 2.52,1.44 4.536,3.672 6.12,6.624 l 4.968,-3.456 c -1.728,-3.24 -4.176,-5.976 -7.344,-8.064 -3.168,-2.016 -7.272,-3.096 -12.168,-3.096 -3.456,0 -6.624,0.72 -9.504,2.088 -2.952,1.44 -5.472,3.312 -7.56,5.688 -2.16,2.376 -3.816,5.112 -4.968,8.208 -1.224,3.096 -1.8,6.336 -1.8,9.792 0,3.384 0.576,6.552 1.8,9.648 1.224,3.168 2.88,5.904 5.04,8.352 2.088,2.448 4.536,4.392 7.488,5.832 2.88,1.512 6.048,2.232 9.504,2.232 3.6,0 6.912,-0.864 10.008,-2.736 v -6.048 c -3.024,2.016 -6.192,2.952 -9.504,2.952 -2.592,0 -4.896,-0.504 -7.056,-1.584 z m 11.088,-18.432 v 4.896 h 11.016 V 0 h 5.472 v -25.488 z" stroke-width="0" stroke-linejoin="miter" stroke-miterlimit="2" fill="#a1a09c" stroke="#a1a09c" transform="translate(0 319.07079999999996) translate(733.5658945499998 27.863599999999998) scale(1.43) translate(-621.19081 51.48)" data-darkreader-inline-fill="" data-darkreader-inline-stroke=""></path>
      </g>
      <image xlink:href="" id="icon" style="display: none;" x="0" y="0"></image>
    </g>
  </g>
</svg>